<mxfile host="app.diagrams.net" agent="Mozilla/5.0 (X11; Linux x86_64) AppleWebKit/537.36 (KHTML, like Gecko) Chrome/131.0.0.0 Safari/537.36 Edg/131.0.0.0" version="24.8.6">
  <diagram name="第 1 页" id="_s9od7OkBDFMabbeadr6">
    <mxGraphModel dx="1680" dy="1171" grid="0" gridSize="10" guides="1" tooltips="1" connect="1" arrows="1" fold="1" page="0" pageScale="1" pageWidth="827" pageHeight="1169" math="0" shadow="0">
      <root>
        <mxCell id="0" />
        <mxCell id="1" parent="0" />
        <mxCell id="9Sx3qytytTcBNsv8R5io-1" value="SBERT" style="shape=cube;whiteSpace=wrap;html=1;boundedLbl=1;backgroundOutline=1;darkOpacity=0.05;darkOpacity2=0.1;size=22;" vertex="1" parent="1">
          <mxGeometry x="56" y="100" width="211" height="83" as="geometry" />
        </mxCell>
        <mxCell id="9Sx3qytytTcBNsv8R5io-8" value="Text" style="rounded=0;whiteSpace=wrap;html=1;" vertex="1" parent="1">
          <mxGeometry x="92" y="-6" width="120" height="60" as="geometry" />
        </mxCell>
        <mxCell id="9Sx3qytytTcBNsv8R5io-9" value="" style="shape=flexArrow;endArrow=classic;html=1;rounded=0;fontSize=12;startSize=8;endSize=8;curved=1;exitX=0;exitY=0;exitDx=116.5;exitDy=83;exitPerimeter=0;entryX=0.5;entryY=0;entryDx=0;entryDy=0;" edge="1" parent="1" source="9Sx3qytytTcBNsv8R5io-1" target="9Sx3qytytTcBNsv8R5io-13">
          <mxGeometry width="50" height="50" relative="1" as="geometry">
            <mxPoint x="245" y="289" as="sourcePoint" />
            <mxPoint x="300" y="316" as="targetPoint" />
          </mxGeometry>
        </mxCell>
        <mxCell id="9Sx3qytytTcBNsv8R5io-10" value="" style="shape=flexArrow;endArrow=classic;html=1;rounded=0;fontSize=12;startSize=8;endSize=8;curved=1;exitX=0.5;exitY=1;exitDx=0;exitDy=0;entryX=0;entryY=0;entryDx=96.5;entryDy=0;entryPerimeter=0;" edge="1" parent="1" source="9Sx3qytytTcBNsv8R5io-8" target="9Sx3qytytTcBNsv8R5io-1">
          <mxGeometry width="50" height="50" relative="1" as="geometry">
            <mxPoint x="274" y="229" as="sourcePoint" />
            <mxPoint x="310" y="326" as="targetPoint" />
          </mxGeometry>
        </mxCell>
        <mxCell id="9Sx3qytytTcBNsv8R5io-11" value="" style="shape=flexArrow;endArrow=classic;html=1;rounded=0;fontSize=12;startSize=8;endSize=8;curved=1;exitX=0;exitY=0;exitDx=116.5;exitDy=83;exitPerimeter=0;entryX=0.5;entryY=0;entryDx=0;entryDy=0;" edge="1" parent="1" source="9Sx3qytytTcBNsv8R5io-1" target="9Sx3qytytTcBNsv8R5io-12">
          <mxGeometry width="50" height="50" relative="1" as="geometry">
            <mxPoint x="274" y="229" as="sourcePoint" />
            <mxPoint x="131" y="315" as="targetPoint" />
          </mxGeometry>
        </mxCell>
        <mxCell id="9Sx3qytytTcBNsv8R5io-12" value="Linear layer for Key vector" style="rounded=0;whiteSpace=wrap;html=1;fillColor=#d5e8d4;strokeColor=#82b366;" vertex="1" parent="1">
          <mxGeometry x="46" y="241" width="120" height="60" as="geometry" />
        </mxCell>
        <mxCell id="9Sx3qytytTcBNsv8R5io-13" value="Linear layer for Query vector" style="rounded=0;whiteSpace=wrap;html=1;fillColor=#f8cecc;strokeColor=#b85450;" vertex="1" parent="1">
          <mxGeometry x="179" y="241" width="120" height="60" as="geometry" />
        </mxCell>
        <mxCell id="9Sx3qytytTcBNsv8R5io-14" value="Key Vector" style="rounded=0;whiteSpace=wrap;html=1;fillColor=#d5e8d4;strokeColor=#82b366;" vertex="1" parent="1">
          <mxGeometry x="46" y="352" width="120" height="21" as="geometry" />
        </mxCell>
        <mxCell id="9Sx3qytytTcBNsv8R5io-15" value="" style="shape=flexArrow;endArrow=classic;html=1;rounded=0;fontSize=12;startSize=8;endSize=8;curved=1;exitX=0.5;exitY=1;exitDx=0;exitDy=0;entryX=0.5;entryY=0;entryDx=0;entryDy=0;" edge="1" parent="1" source="9Sx3qytytTcBNsv8R5io-12" target="9Sx3qytytTcBNsv8R5io-14">
          <mxGeometry width="50" height="50" relative="1" as="geometry">
            <mxPoint x="86" y="362" as="sourcePoint" />
            <mxPoint x="51" y="435" as="targetPoint" />
          </mxGeometry>
        </mxCell>
        <mxCell id="9Sx3qytytTcBNsv8R5io-16" value="Key Vector" style="rounded=0;whiteSpace=wrap;html=1;fillColor=#f8cecc;strokeColor=#b85450;" vertex="1" parent="1">
          <mxGeometry x="179" y="352" width="120" height="21" as="geometry" />
        </mxCell>
        <mxCell id="9Sx3qytytTcBNsv8R5io-18" value="" style="shape=flexArrow;endArrow=classic;html=1;rounded=0;fontSize=12;startSize=8;endSize=8;curved=1;exitX=0.5;exitY=1;exitDx=0;exitDy=0;" edge="1" parent="1" source="9Sx3qytytTcBNsv8R5io-13" target="9Sx3qytytTcBNsv8R5io-16">
          <mxGeometry width="50" height="50" relative="1" as="geometry">
            <mxPoint x="316" y="322" as="sourcePoint" />
            <mxPoint x="316" y="373" as="targetPoint" />
          </mxGeometry>
        </mxCell>
        <mxCell id="9Sx3qytytTcBNsv8R5io-21" style="edgeStyle=none;curved=1;rounded=0;orthogonalLoop=1;jettySize=auto;html=1;entryX=0;entryY=0.5;entryDx=0;entryDy=0;fontSize=12;startSize=8;endSize=8;" edge="1" parent="1" source="9Sx3qytytTcBNsv8R5io-19" target="9Sx3qytytTcBNsv8R5io-20">
          <mxGeometry relative="1" as="geometry" />
        </mxCell>
        <mxCell id="9Sx3qytytTcBNsv8R5io-26" style="edgeStyle=none;curved=1;rounded=0;orthogonalLoop=1;jettySize=auto;html=1;entryX=0;entryY=0.5;entryDx=0;entryDy=0;fontSize=12;startSize=8;endSize=8;" edge="1" parent="1" source="9Sx3qytytTcBNsv8R5io-19" target="9Sx3qytytTcBNsv8R5io-23">
          <mxGeometry relative="1" as="geometry" />
        </mxCell>
        <mxCell id="9Sx3qytytTcBNsv8R5io-27" style="edgeStyle=none;curved=1;rounded=0;orthogonalLoop=1;jettySize=auto;html=1;entryX=0;entryY=0.5;entryDx=0;entryDy=0;fontSize=12;startSize=8;endSize=8;" edge="1" parent="1" source="9Sx3qytytTcBNsv8R5io-19" target="9Sx3qytytTcBNsv8R5io-24">
          <mxGeometry relative="1" as="geometry" />
        </mxCell>
        <mxCell id="9Sx3qytytTcBNsv8R5io-28" style="edgeStyle=none;curved=1;rounded=0;orthogonalLoop=1;jettySize=auto;html=1;entryX=0;entryY=0.5;entryDx=0;entryDy=0;fontSize=12;startSize=8;endSize=8;" edge="1" parent="1" source="9Sx3qytytTcBNsv8R5io-19" target="9Sx3qytytTcBNsv8R5io-25">
          <mxGeometry relative="1" as="geometry" />
        </mxCell>
        <mxCell id="9Sx3qytytTcBNsv8R5io-19" value="Database" style="shape=datastore;whiteSpace=wrap;html=1;" vertex="1" parent="1">
          <mxGeometry x="441" y="76.5" width="132" height="130" as="geometry" />
        </mxCell>
        <mxCell id="9Sx3qytytTcBNsv8R5io-29" style="edgeStyle=none;curved=1;rounded=0;orthogonalLoop=1;jettySize=auto;html=1;fontSize=12;startSize=8;endSize=8;" edge="1" parent="1" source="9Sx3qytytTcBNsv8R5io-20" target="9Sx3qytytTcBNsv8R5io-22">
          <mxGeometry relative="1" as="geometry" />
        </mxCell>
        <mxCell id="9Sx3qytytTcBNsv8R5io-20" value="Text" style="rounded=0;whiteSpace=wrap;html=1;" vertex="1" parent="1">
          <mxGeometry x="615" y="45" width="120" height="20" as="geometry" />
        </mxCell>
        <mxCell id="9Sx3qytytTcBNsv8R5io-34" style="edgeStyle=none;curved=1;rounded=0;orthogonalLoop=1;jettySize=auto;html=1;entryX=0;entryY=0.5;entryDx=0;entryDy=0;fontSize=12;startSize=8;endSize=8;" edge="1" parent="1" source="9Sx3qytytTcBNsv8R5io-22" target="9Sx3qytytTcBNsv8R5io-33">
          <mxGeometry relative="1" as="geometry" />
        </mxCell>
        <mxCell id="9Sx3qytytTcBNsv8R5io-22" value="SBERT" style="shape=cube;whiteSpace=wrap;html=1;boundedLbl=1;backgroundOutline=1;darkOpacity=0.05;darkOpacity2=0.1;size=22;" vertex="1" parent="1">
          <mxGeometry x="782" y="22" width="88" height="317" as="geometry" />
        </mxCell>
        <mxCell id="9Sx3qytytTcBNsv8R5io-30" style="edgeStyle=none;curved=1;rounded=0;orthogonalLoop=1;jettySize=auto;html=1;fontSize=12;startSize=8;endSize=8;" edge="1" parent="1" source="9Sx3qytytTcBNsv8R5io-23" target="9Sx3qytytTcBNsv8R5io-22">
          <mxGeometry relative="1" as="geometry" />
        </mxCell>
        <mxCell id="9Sx3qytytTcBNsv8R5io-23" value="Text" style="rounded=0;whiteSpace=wrap;html=1;" vertex="1" parent="1">
          <mxGeometry x="615" y="100" width="120" height="20" as="geometry" />
        </mxCell>
        <mxCell id="9Sx3qytytTcBNsv8R5io-31" style="edgeStyle=none;curved=1;rounded=0;orthogonalLoop=1;jettySize=auto;html=1;fontSize=12;startSize=8;endSize=8;" edge="1" parent="1" source="9Sx3qytytTcBNsv8R5io-24" target="9Sx3qytytTcBNsv8R5io-22">
          <mxGeometry relative="1" as="geometry" />
        </mxCell>
        <mxCell id="9Sx3qytytTcBNsv8R5io-24" value="Text" style="rounded=0;whiteSpace=wrap;html=1;" vertex="1" parent="1">
          <mxGeometry x="615" y="155" width="120" height="20" as="geometry" />
        </mxCell>
        <mxCell id="9Sx3qytytTcBNsv8R5io-32" style="edgeStyle=none;curved=1;rounded=0;orthogonalLoop=1;jettySize=auto;html=1;fontSize=12;startSize=8;endSize=8;" edge="1" parent="1" source="9Sx3qytytTcBNsv8R5io-25" target="9Sx3qytytTcBNsv8R5io-22">
          <mxGeometry relative="1" as="geometry" />
        </mxCell>
        <mxCell id="9Sx3qytytTcBNsv8R5io-25" value="Text" style="rounded=0;whiteSpace=wrap;html=1;" vertex="1" parent="1">
          <mxGeometry x="618" y="210" width="120" height="20" as="geometry" />
        </mxCell>
        <mxCell id="9Sx3qytytTcBNsv8R5io-36" style="edgeStyle=none;curved=1;rounded=0;orthogonalLoop=1;jettySize=auto;html=1;entryX=0;entryY=0.5;entryDx=0;entryDy=0;fontSize=12;startSize=8;endSize=8;" edge="1" parent="1" source="9Sx3qytytTcBNsv8R5io-33" target="9Sx3qytytTcBNsv8R5io-35">
          <mxGeometry relative="1" as="geometry" />
        </mxCell>
        <mxCell id="9Sx3qytytTcBNsv8R5io-41" style="edgeStyle=none;curved=1;rounded=0;orthogonalLoop=1;jettySize=auto;html=1;entryX=0;entryY=0.5;entryDx=0;entryDy=0;fontSize=12;startSize=8;endSize=8;" edge="1" parent="1" source="9Sx3qytytTcBNsv8R5io-33" target="9Sx3qytytTcBNsv8R5io-38">
          <mxGeometry relative="1" as="geometry" />
        </mxCell>
        <mxCell id="9Sx3qytytTcBNsv8R5io-42" style="edgeStyle=none;curved=1;rounded=0;orthogonalLoop=1;jettySize=auto;html=1;entryX=0;entryY=0.5;entryDx=0;entryDy=0;fontSize=12;startSize=8;endSize=8;" edge="1" parent="1" source="9Sx3qytytTcBNsv8R5io-33" target="9Sx3qytytTcBNsv8R5io-39">
          <mxGeometry relative="1" as="geometry" />
        </mxCell>
        <mxCell id="9Sx3qytytTcBNsv8R5io-43" style="edgeStyle=none;curved=1;rounded=0;orthogonalLoop=1;jettySize=auto;html=1;entryX=0;entryY=0.5;entryDx=0;entryDy=0;fontSize=12;startSize=8;endSize=8;" edge="1" parent="1" source="9Sx3qytytTcBNsv8R5io-33" target="9Sx3qytytTcBNsv8R5io-40">
          <mxGeometry relative="1" as="geometry" />
        </mxCell>
        <mxCell id="9Sx3qytytTcBNsv8R5io-33" value="Linear layer for Key vector" style="rounded=0;whiteSpace=wrap;html=1;fillColor=#d5e8d4;strokeColor=#82b366;" vertex="1" parent="1">
          <mxGeometry x="912" y="105" width="120" height="60" as="geometry" />
        </mxCell>
        <mxCell id="9Sx3qytytTcBNsv8R5io-55" style="edgeStyle=none;curved=1;rounded=0;orthogonalLoop=1;jettySize=auto;html=1;fontSize=12;startSize=8;endSize=8;" edge="1" parent="1" source="9Sx3qytytTcBNsv8R5io-35" target="9Sx3qytytTcBNsv8R5io-52">
          <mxGeometry relative="1" as="geometry" />
        </mxCell>
        <mxCell id="9Sx3qytytTcBNsv8R5io-35" value="Key Vector" style="rounded=0;whiteSpace=wrap;html=1;fillColor=#d5e8d4;strokeColor=#82b366;" vertex="1" parent="1">
          <mxGeometry x="1068" y="86" width="120" height="21" as="geometry" />
        </mxCell>
        <mxCell id="9Sx3qytytTcBNsv8R5io-47" style="edgeStyle=none;curved=1;rounded=0;orthogonalLoop=1;jettySize=auto;html=1;entryX=0;entryY=0.5;entryDx=0;entryDy=0;fontSize=12;startSize=8;endSize=8;" edge="1" parent="1" source="9Sx3qytytTcBNsv8R5io-37" target="9Sx3qytytTcBNsv8R5io-46">
          <mxGeometry relative="1" as="geometry" />
        </mxCell>
        <mxCell id="9Sx3qytytTcBNsv8R5io-37" value="SBERT" style="shape=cube;whiteSpace=wrap;html=1;boundedLbl=1;backgroundOutline=1;darkOpacity=0.05;darkOpacity2=0.1;size=22;" vertex="1" parent="1">
          <mxGeometry x="782" y="-120" width="88" height="142" as="geometry" />
        </mxCell>
        <mxCell id="9Sx3qytytTcBNsv8R5io-66" style="edgeStyle=none;curved=1;rounded=0;orthogonalLoop=1;jettySize=auto;html=1;fontSize=12;startSize=8;endSize=8;" edge="1" parent="1" source="9Sx3qytytTcBNsv8R5io-38" target="9Sx3qytytTcBNsv8R5io-58">
          <mxGeometry relative="1" as="geometry" />
        </mxCell>
        <mxCell id="9Sx3qytytTcBNsv8R5io-38" value="Key Vector" style="rounded=0;whiteSpace=wrap;html=1;fillColor=#d5e8d4;strokeColor=#82b366;" vertex="1" parent="1">
          <mxGeometry x="1068" y="127" width="120" height="21" as="geometry" />
        </mxCell>
        <mxCell id="9Sx3qytytTcBNsv8R5io-39" value="Key Vector" style="rounded=0;whiteSpace=wrap;html=1;fillColor=#d5e8d4;strokeColor=#82b366;" vertex="1" parent="1">
          <mxGeometry x="1068" y="168" width="120" height="21" as="geometry" />
        </mxCell>
        <mxCell id="9Sx3qytytTcBNsv8R5io-40" value="Key Vector" style="rounded=0;whiteSpace=wrap;html=1;fillColor=#d5e8d4;strokeColor=#82b366;" vertex="1" parent="1">
          <mxGeometry x="1068" y="209" width="120" height="21" as="geometry" />
        </mxCell>
        <mxCell id="9Sx3qytytTcBNsv8R5io-44" value="User query" style="rounded=0;whiteSpace=wrap;html=1;" vertex="1" parent="1">
          <mxGeometry x="615" y="-84" width="120" height="60" as="geometry" />
        </mxCell>
        <mxCell id="9Sx3qytytTcBNsv8R5io-45" style="edgeStyle=none;curved=1;rounded=0;orthogonalLoop=1;jettySize=auto;html=1;entryX=0;entryY=0;entryDx=0;entryDy=60;entryPerimeter=0;fontSize=12;startSize=8;endSize=8;" edge="1" parent="1" source="9Sx3qytytTcBNsv8R5io-44" target="9Sx3qytytTcBNsv8R5io-37">
          <mxGeometry relative="1" as="geometry" />
        </mxCell>
        <mxCell id="9Sx3qytytTcBNsv8R5io-49" style="edgeStyle=none;curved=1;rounded=0;orthogonalLoop=1;jettySize=auto;html=1;entryX=0;entryY=0.5;entryDx=0;entryDy=0;fontSize=12;startSize=8;endSize=8;" edge="1" parent="1" source="9Sx3qytytTcBNsv8R5io-46" target="9Sx3qytytTcBNsv8R5io-48">
          <mxGeometry relative="1" as="geometry" />
        </mxCell>
        <mxCell id="9Sx3qytytTcBNsv8R5io-46" value="Linear layer for Query vector" style="rounded=0;whiteSpace=wrap;html=1;fillColor=#f8cecc;strokeColor=#b85450;" vertex="1" parent="1">
          <mxGeometry x="912" y="-71" width="120" height="60" as="geometry" />
        </mxCell>
        <mxCell id="9Sx3qytytTcBNsv8R5io-48" value="Query Vector" style="rounded=0;whiteSpace=wrap;html=1;fillColor=#f8cecc;strokeColor=#b85450;" vertex="1" parent="1">
          <mxGeometry x="1223" y="-56" width="120" height="21" as="geometry" />
        </mxCell>
        <mxCell id="9Sx3qytytTcBNsv8R5io-50" value="we trained" style="text;html=1;align=center;verticalAlign=middle;whiteSpace=wrap;rounded=0;fontSize=16;" vertex="1" parent="1">
          <mxGeometry x="-27" y="256" width="60" height="30" as="geometry" />
        </mxCell>
        <mxCell id="9Sx3qytytTcBNsv8R5io-51" value="we trained" style="text;html=1;align=center;verticalAlign=middle;whiteSpace=wrap;rounded=0;fontSize=16;" vertex="1" parent="1">
          <mxGeometry x="942" y="-122" width="60" height="30" as="geometry" />
        </mxCell>
        <mxCell id="9Sx3qytytTcBNsv8R5io-56" style="edgeStyle=none;curved=1;rounded=0;orthogonalLoop=1;jettySize=auto;html=1;fontSize=12;startSize=8;endSize=8;entryX=0;entryY=0.5;entryDx=0;entryDy=0;" edge="1" parent="1" source="9Sx3qytytTcBNsv8R5io-52" target="9Sx3qytytTcBNsv8R5io-57">
          <mxGeometry relative="1" as="geometry">
            <mxPoint x="1380.2857142857142" y="92" as="targetPoint" />
          </mxGeometry>
        </mxCell>
        <mxCell id="9Sx3qytytTcBNsv8R5io-52" value="" style="verticalLabelPosition=bottom;verticalAlign=top;html=1;shape=mxgraph.flowchart.or;" vertex="1" parent="1">
          <mxGeometry x="1278" y="77.25" width="41" height="38.5" as="geometry" />
        </mxCell>
        <mxCell id="9Sx3qytytTcBNsv8R5io-53" style="edgeStyle=orthogonalEdgeStyle;rounded=0;orthogonalLoop=1;jettySize=auto;html=1;entryX=0.145;entryY=0.145;entryDx=0;entryDy=0;entryPerimeter=0;fontSize=12;startSize=8;endSize=8;" edge="1" parent="1" source="9Sx3qytytTcBNsv8R5io-48" target="9Sx3qytytTcBNsv8R5io-52">
          <mxGeometry relative="1" as="geometry">
            <Array as="points">
              <mxPoint x="1236" y="82" />
            </Array>
          </mxGeometry>
        </mxCell>
        <mxCell id="9Sx3qytytTcBNsv8R5io-54" value="Transpose" style="edgeLabel;html=1;align=center;verticalAlign=middle;resizable=0;points=[];fontSize=12;" vertex="1" connectable="0" parent="9Sx3qytytTcBNsv8R5io-53">
          <mxGeometry x="-0.25" y="1" relative="1" as="geometry">
            <mxPoint as="offset" />
          </mxGeometry>
        </mxCell>
        <mxCell id="9Sx3qytytTcBNsv8R5io-57" value="0.9" style="rounded=0;whiteSpace=wrap;html=1;" vertex="1" parent="1">
          <mxGeometry x="1374" y="85" width="53" height="23" as="geometry" />
        </mxCell>
        <mxCell id="9Sx3qytytTcBNsv8R5io-72" style="edgeStyle=none;curved=1;rounded=0;orthogonalLoop=1;jettySize=auto;html=1;entryX=0;entryY=0.5;entryDx=0;entryDy=0;fontSize=12;startSize=8;endSize=8;" edge="1" parent="1" source="9Sx3qytytTcBNsv8R5io-58" target="9Sx3qytytTcBNsv8R5io-69">
          <mxGeometry relative="1" as="geometry" />
        </mxCell>
        <mxCell id="9Sx3qytytTcBNsv8R5io-58" value="" style="verticalLabelPosition=bottom;verticalAlign=top;html=1;shape=mxgraph.flowchart.or;" vertex="1" parent="1">
          <mxGeometry x="1278" y="118.25" width="41" height="38.5" as="geometry" />
        </mxCell>
        <mxCell id="9Sx3qytytTcBNsv8R5io-73" style="edgeStyle=none;curved=1;rounded=0;orthogonalLoop=1;jettySize=auto;html=1;entryX=0;entryY=0.5;entryDx=0;entryDy=0;fontSize=12;startSize=8;endSize=8;" edge="1" parent="1" source="9Sx3qytytTcBNsv8R5io-59" target="9Sx3qytytTcBNsv8R5io-70">
          <mxGeometry relative="1" as="geometry" />
        </mxCell>
        <mxCell id="9Sx3qytytTcBNsv8R5io-59" value="" style="verticalLabelPosition=bottom;verticalAlign=top;html=1;shape=mxgraph.flowchart.or;" vertex="1" parent="1">
          <mxGeometry x="1278" y="159.25" width="41" height="38.5" as="geometry" />
        </mxCell>
        <mxCell id="9Sx3qytytTcBNsv8R5io-74" style="edgeStyle=none;curved=1;rounded=0;orthogonalLoop=1;jettySize=auto;html=1;entryX=0;entryY=0.5;entryDx=0;entryDy=0;fontSize=12;startSize=8;endSize=8;" edge="1" parent="1" source="9Sx3qytytTcBNsv8R5io-60" target="9Sx3qytytTcBNsv8R5io-71">
          <mxGeometry relative="1" as="geometry" />
        </mxCell>
        <mxCell id="9Sx3qytytTcBNsv8R5io-60" value="" style="verticalLabelPosition=bottom;verticalAlign=top;html=1;shape=mxgraph.flowchart.or;" vertex="1" parent="1">
          <mxGeometry x="1278" y="200.25" width="41" height="38.5" as="geometry" />
        </mxCell>
        <mxCell id="9Sx3qytytTcBNsv8R5io-61" style="edgeStyle=orthogonalEdgeStyle;rounded=0;orthogonalLoop=1;jettySize=auto;html=1;entryX=0.145;entryY=0.145;entryDx=0;entryDy=0;entryPerimeter=0;fontSize=12;startSize=8;endSize=8;exitX=0.105;exitY=0.998;exitDx=0;exitDy=0;exitPerimeter=0;" edge="1" parent="1" source="9Sx3qytytTcBNsv8R5io-48" target="9Sx3qytytTcBNsv8R5io-58">
          <mxGeometry relative="1" as="geometry">
            <mxPoint x="1246" y="-25" as="sourcePoint" />
            <mxPoint x="1294" y="93" as="targetPoint" />
            <Array as="points">
              <mxPoint x="1236" y="124" />
            </Array>
          </mxGeometry>
        </mxCell>
        <mxCell id="9Sx3qytytTcBNsv8R5io-64" style="edgeStyle=orthogonalEdgeStyle;rounded=0;orthogonalLoop=1;jettySize=auto;html=1;entryX=0.145;entryY=0.145;entryDx=0;entryDy=0;entryPerimeter=0;fontSize=12;startSize=8;endSize=8;exitX=0.107;exitY=0.992;exitDx=0;exitDy=0;exitPerimeter=0;" edge="1" parent="1" source="9Sx3qytytTcBNsv8R5io-48" target="9Sx3qytytTcBNsv8R5io-59">
          <mxGeometry relative="1" as="geometry">
            <mxPoint x="1245" y="-27" as="sourcePoint" />
            <mxPoint x="1294" y="134" as="targetPoint" />
            <Array as="points">
              <mxPoint x="1236" y="164" />
              <mxPoint x="1284" y="164" />
            </Array>
          </mxGeometry>
        </mxCell>
        <mxCell id="9Sx3qytytTcBNsv8R5io-65" style="edgeStyle=orthogonalEdgeStyle;rounded=0;orthogonalLoop=1;jettySize=auto;html=1;entryX=0.145;entryY=0.145;entryDx=0;entryDy=0;entryPerimeter=0;fontSize=12;startSize=8;endSize=8;exitX=0.106;exitY=0.973;exitDx=0;exitDy=0;exitPerimeter=0;" edge="1" parent="1" source="9Sx3qytytTcBNsv8R5io-48" target="9Sx3qytytTcBNsv8R5io-60">
          <mxGeometry relative="1" as="geometry">
            <mxPoint x="1246" y="-25" as="sourcePoint" />
            <mxPoint x="1294" y="175" as="targetPoint" />
            <Array as="points">
              <mxPoint x="1236" y="174" />
              <mxPoint x="1236" y="174" />
              <mxPoint x="1236" y="206" />
            </Array>
          </mxGeometry>
        </mxCell>
        <mxCell id="9Sx3qytytTcBNsv8R5io-67" style="edgeStyle=none;curved=1;rounded=0;orthogonalLoop=1;jettySize=auto;html=1;entryX=0;entryY=0.5;entryDx=0;entryDy=0;entryPerimeter=0;fontSize=12;startSize=8;endSize=8;" edge="1" parent="1" source="9Sx3qytytTcBNsv8R5io-39" target="9Sx3qytytTcBNsv8R5io-59">
          <mxGeometry relative="1" as="geometry" />
        </mxCell>
        <mxCell id="9Sx3qytytTcBNsv8R5io-68" style="edgeStyle=none;curved=1;rounded=0;orthogonalLoop=1;jettySize=auto;html=1;entryX=0;entryY=0.5;entryDx=0;entryDy=0;entryPerimeter=0;fontSize=12;startSize=8;endSize=8;" edge="1" parent="1" source="9Sx3qytytTcBNsv8R5io-40" target="9Sx3qytytTcBNsv8R5io-60">
          <mxGeometry relative="1" as="geometry" />
        </mxCell>
        <mxCell id="9Sx3qytytTcBNsv8R5io-69" value="0.3" style="rounded=0;whiteSpace=wrap;html=1;" vertex="1" parent="1">
          <mxGeometry x="1374" y="125.5" width="53" height="24" as="geometry" />
        </mxCell>
        <mxCell id="9Sx3qytytTcBNsv8R5io-70" value="0.3" style="rounded=0;whiteSpace=wrap;html=1;" vertex="1" parent="1">
          <mxGeometry x="1374" y="166.5" width="53" height="24" as="geometry" />
        </mxCell>
        <mxCell id="9Sx3qytytTcBNsv8R5io-71" value="0.1" style="rounded=0;whiteSpace=wrap;html=1;" vertex="1" parent="1">
          <mxGeometry x="1374" y="207.5" width="53" height="24" as="geometry" />
        </mxCell>
        <mxCell id="9Sx3qytytTcBNsv8R5io-76" style="edgeStyle=none;curved=1;rounded=0;orthogonalLoop=1;jettySize=auto;html=1;entryX=1;entryY=0.25;entryDx=0;entryDy=0;fontSize=12;startSize=8;endSize=8;" edge="1" parent="1" source="9Sx3qytytTcBNsv8R5io-75" target="9Sx3qytytTcBNsv8R5io-57">
          <mxGeometry relative="1" as="geometry" />
        </mxCell>
        <mxCell id="9Sx3qytytTcBNsv8R5io-75" value="select this as mate!" style="text;html=1;align=center;verticalAlign=middle;whiteSpace=wrap;rounded=0;fontSize=16;" vertex="1" parent="1">
          <mxGeometry x="1413" y="32" width="92" height="30" as="geometry" />
        </mxCell>
        <mxCell id="9Sx3qytytTcBNsv8R5io-77" value="we trained" style="text;html=1;align=center;verticalAlign=middle;whiteSpace=wrap;rounded=0;fontSize=16;" vertex="1" parent="1">
          <mxGeometry x="942" y="65" width="60" height="30" as="geometry" />
        </mxCell>
      </root>
    </mxGraphModel>
  </diagram>
</mxfile>
